<?xml version="1.0" encoding="UTF-8"?>
<!DOCTYPE svg PUBLIC "-//W3C//DTD SVG 1.1//EN" "http://www.w3.org/Graphics/SVG/1.1/DTD/svg11.dtd">
<svg xmlns="http://www.w3.org/2000/svg" version="1.1" width="1000px" height="1000px" style="shape-rendering:geometricPrecision; text-rendering:geometricPrecision; image-rendering:optimizeQuality; fill-rule:evenodd; clip-rule:evenodd" xmlns:xlink="http://www.w3.org/1999/xlink">
<g><path style="opacity:0.987" fill="#ba2548" d="M 795.5,145.5 C 830.83,143.635 865.83,146.135 900.5,153C 925.312,158.087 947.645,168.254 967.5,183.5C 956.755,213.571 945.922,243.571 935,273.5C 893.266,241.926 846.433,229.759 794.5,237C 763.154,246.503 746.821,267.67 745.5,300.5C 746.257,315.274 751.424,328.274 761,339.5C 778.56,358.735 798.727,374.569 821.5,387C 850.484,401.824 879.151,417.158 907.5,433C 970.626,472.084 999.126,528.917 993,603.5C 986.567,652.556 962.4,690.056 920.5,716C 887.808,735.117 852.475,745.784 814.5,748C 759.573,752.881 707.573,742.881 658.5,718C 651.998,714.25 645.665,710.25 639.5,706C 652.296,675.572 664.962,645.072 677.5,614.5C 678.365,613.417 679.365,613.251 680.5,614C 710.593,636.205 744.26,649.871 781.5,655C 806.468,657.739 830.801,655.073 854.5,647C 881.809,634.226 893.309,612.726 889,582.5C 883.349,553.697 868.516,530.864 844.5,514C 833.507,506.168 822.174,498.835 810.5,492C 777.366,475.603 745.033,457.937 713.5,439C 671.302,411.729 647.469,372.895 642,322.5C 636.199,247.38 667.032,193.547 734.5,161C 754.2,152.826 774.533,147.659 795.5,145.5 Z"/></g>
<g><path style="opacity:0.988" fill="#ba2548" d="M 126.5,155.5 C 145.569,154.854 164.402,155.52 183,157.5C 224.667,287.167 266.333,416.833 308,546.5C 348.512,416.787 389.178,287.12 430,157.5C 448.598,155.52 467.431,154.854 486.5,155.5C 526.167,350.167 565.833,544.833 605.5,739.5C 571.5,739.5 537.5,739.5 503.5,739.5C 483.991,635.456 464.158,531.456 444,427.5C 404.664,534.011 365.831,640.677 327.5,747.5C 314.587,747.822 301.754,747.489 289,746.5C 250.459,640.375 211.626,534.375 172.5,428.5C 151.5,531.833 130.5,635.166 109.5,738.5C 75.8333,739.833 42.1667,739.833 8.5,738.5C 47.8391,544.138 87.1724,349.804 126.5,155.5 Z"/></g>
</svg>
